<svg id="Layer_1" data-name="Layer 1" xmlns="http://www.w3.org/2000/svg" viewBox="0 0 199.62 66.21"><defs><style>.cls-1{fill:#ba1818;}.cls-2{fill:#263564;}</style></defs><title>corporate-swoosh</title><g id="_Group_" data-name="&lt;Group&gt;"><polygon class="cls-1" points="62.18 57.83 63.21 57.93 64.25 58.03 65.27 58.13 66.31 58.22 67.34 58.3 68.36 58.39 69.4 58.45 70.42 58.5 71.44 58.56 72.48 58.61 73.5 58.64 74.52 58.67 75.56 58.68 76.58 58.7 77.6 58.68 78.62 58.67 79.13 58.65 79.66 58.63 80.17 58.61 80.67 58.58 81.18 58.56 81.7 58.53 82.2 58.49 82.71 58.45 83.24 58.41 83.73 58.37 84.74 58.27 85.78 58.17 86.79 58.05 87.81 57.92 88.82 57.78 89.84 57.62 90.85 57.47 91.86 57.3 92.87 57.13 93.89 56.94 94.9 56.75 95.9 56.55 96.92 56.34 97.91 56.14 98.91 55.93 99.92 55.7 100.93 55.48 101.92 55.25 102.92 55.02 104.92 54.54 106.9 54.08 108.89 53.58 110.87 53.12 112.85 52.64 113.83 52.41 114.83 52.18 115.84 51.96 116.84 51.73 117.82 51.53 118.81 51.32 119.81 51.13 120.83 50.94 121.83 50.76 122.83 50.57 123.85 50.42 124.86 50.26 125.88 50.12 126.89 49.99 127.91 49.87 128.93 49.75 129.95 49.66 130.99 49.57 132.01 49.5 132.52 49.46 133.04 49.43 133.56 49.4 134.08 49.37 134.59 49.36 135.1 49.35 135.63 49.33 136.14 49.32 136.66 49.3 137.17 49.3 137.69 49.3 138.22 49.3 138.73 49.3 139.26 49.32 139.77 49.33 140.28 49.35 140.8 49.37 141.33 49.4 141.85 49.43 142.36 49.46 142.89 49.48 143.41 49.52 143.93 49.56 144.45 49.61 144.96 49.66 145.48 49.71 146.01 49.78 146.53 49.83 147.04 49.9 147.55 49.97 148.08 50.05 148.59 50.12 149.1 50.19 149.62 50.29 150.13 50.38 150.63 50.46 151.16 50.57 151.65 50.67 152.17 50.77 152.66 50.9 153.16 51.01 153.66 51.13 154.17 51.25 154.67 51.38 155.15 51.52 155.65 51.66 156.12 51.8 156.61 51.96 157.09 52.11 157.58 52.27 158.05 52.43 158.52 52.6 158.99 52.78 159.44 52.95 159.91 53.14 160.37 53.33 160.83 53.52 161.27 53.72 161.7 53.92 162.15 54.15 162.58 54.36 163.02 54.57 163.44 54.8 163.87 55.04 164.29 55.26 164.69 55.5 165.11 55.75 165.52 56.01 165.91 56.25 166.32 56.51 166.71 56.78 167.12 57.03 167.5 57.3 167.9 57.58 168.28 57.85 168.66 58.14 169.03 58.43 169.41 58.71 169.78 59.01 170.16 59.29 170.52 59.59 170.89 59.88 171.61 60.49 172.35 61.1 173.04 61.72 173.75 62.35 174.45 62.99 175.15 63.62 175.86 64.26 176.54 64.91 177.91 66.21 176.2 65.34 174.51 64.46 173.64 64.03 172.78 63.61 171.93 63.18 171.06 62.76 170.2 62.34 169.31 61.92 168.44 61.52 167.56 61.11 166.68 60.72 165.78 60.33 164.89 59.95 163.98 59.57 163.07 59.21 162.15 58.85 161.25 58.5 160.3 58.17 159.37 57.85 158.43 57.52 157.96 57.37 157.47 57.23 157.01 57.07 156.53 56.92 156.06 56.78 155.57 56.65 155.1 56.51 154.61 56.37 154.13 56.25 153.65 56.13 153.16 56.01 152.66 55.89 152.19 55.76 151.71 55.66 151.21 55.55 150.72 55.45 150.22 55.35 149.74 55.25 149.24 55.17 148.76 55.08 148.26 54.99 147.76 54.91 147.25 54.84 146.75 54.77 146.26 54.71 145.76 54.66 145.26 54.6 144.76 54.54 144.26 54.5 143.76 54.45 143.27 54.43 142.77 54.4 142.27 54.37 141.75 54.35 141.25 54.33 140.75 54.32 140.25 54.3 139.73 54.3 139.23 54.3 138.73 54.3 138.22 54.3 137.72 54.32 137.23 54.33 136.7 54.36 136.2 54.39 135.69 54.42 135.19 54.44 134.7 54.47 134.17 54.5 133.67 54.54 133.18 54.59 132.67 54.64 132.17 54.7 131.66 54.75 130.65 54.85 129.65 54.99 128.63 55.12 127.63 55.28 126.64 55.43 125.64 55.6 124.65 55.77 123.66 55.97 122.67 56.15 121.67 56.34 120.69 56.56 119.72 56.76 118.75 56.97 117.77 57.2 116.8 57.42 114.86 57.87 112.92 58.33 110.99 58.78 109.06 59.25 107.11 59.7 106.14 59.92 105.19 60.14 104.2 60.34 103.22 60.56 102.25 60.76 101.27 60.95 100.3 61.14 99.29 61.31 98.31 61.49 97.31 61.65 96.31 61.8 95.32 61.95 94.3 62.09 93.3 62.2 92.28 62.31 91.27 62.42 90.27 62.52 89.25 62.6 88.24 62.67 87.72 62.69 87.22 62.72 86.71 62.73 86.21 62.76 85.7 62.78 85.19 62.79 84.68 62.8 84.18 62.8 83.67 62.8 83.17 62.8 82.65 62.8 82.15 62.79 81.65 62.78 81.14 62.76 80.64 62.75 80.13 62.72 79.63 62.69 79.12 62.67 78.62 62.62 78.12 62.6 77.63 62.55 77.13 62.51 76.62 62.45 76.12 62.41 75.62 62.34 75.12 62.29 74.64 62.21 74.14 62.15 73.64 62.07 73.16 61.99 72.66 61.91 72.18 61.83 71.68 61.75 71.19 61.65 70.72 61.56 70.21 61.45 69.25 61.25 68.27 61.03 67.3 60.8 66.33 60.57 65.38 60.32 64.42 60.05 63.46 59.8 62.51 59.53 61.55 59.25 60.59 58.96 59.65 58.68 58.68 58.39 57.74 58.09 55.83 57.49 53.94 56.89 56 57.13 58.06 57.37 60.13 57.6 61.17 57.72 62.18 57.83"/><polygon class="cls-1" points="17.49 38.79 17.14 38.48 16.81 38.17 16.47 37.86 17.86 38.67 19.27 39.46 20.7 40.22 22.17 40.94 23.64 41.65 25.13 42.32 26.63 42.97 28.16 43.6 29.71 44.19 31.27 44.75 32.84 45.29 34.44 45.8 36.03 46.28 37.65 46.73 39.27 47.14 40.92 47.54 42.57 47.9 44.24 48.23 45.9 48.52 47.58 48.79 49.26 49.04 50.95 49.23 52.64 49.41 54.34 49.56 56.06 49.67 57.75 49.77 59.47 49.81 61.17 49.83 62.87 49.81 64.59 49.78 66.29 49.71 68 49.6 69.7 49.47 72.36 49.23 75.01 48.97 77.65 48.67 80.3 48.34 82.93 47.99 85.56 47.61 88.19 47.18 90.81 46.75 93.42 46.27 96.01 45.77 98.59 45.24 101.19 44.67 103.76 44.09 106.31 43.47 108.83 42.85 111.36 42.27 113.89 41.73 116.43 41.2 119 40.73 121.57 40.26 124.14 39.85 126.72 39.47 129.31 39.12 131.92 38.81 134.51 38.53 137.12 38.27 139.73 38.05 142.35 37.88 143.53 37.81 144.72 37.79 145.91 37.79 147.11 37.83 148.29 37.9 149.48 38.02 150.66 38.13 151.84 38.31 153 38.5 154.15 38.72 155.3 38.98 156.45 39.27 157.56 39.58 158.68 39.94 159.78 40.29 160.85 40.7 161.93 41.14 163 41.76 164.05 42.38 165.06 43.05 166.07 43.74 167.05 44.44 167.99 45.19 168.91 45.94 169.82 46.72 170.68 47.52 171.51 48.33 172.31 49.19 173.09 50.04 173.83 50.91 174.52 51.82 175.2 52.72 175.83 53.65 176.45 54.6 177.01 55.56 177.55 56.53 178.05 57.52 178.52 58.5 178.92 59.52 179.33 60.53 179.68 61.56 178.2 60.38 176.7 59.23 175.18 58.1 173.62 56.99 172.04 55.91 170.44 54.85 169.48 54.16 168.49 53.48 167.5 52.83 166.46 52.2 165.41 51.59 164.35 51.01 163.25 50.45 162.14 49.93 161.01 49.43 159.86 48.95 158.69 48.51 157.51 48.09 156.31 47.69 155.11 47.34 153.88 47.01 152.65 46.7 151.42 46.42 150.16 46.18 148.9 45.97 147.63 45.78 146.36 45.63 145.08 45.49 143.79 45.42 142.52 45.35 141.22 45.31 139.34 45.25 137.46 45.24 135.56 45.24 133.67 45.29 131.8 45.36 129.9 45.47 128.01 45.62 126.15 45.8 124.28 46 122.41 46.24 120.56 46.51 118.71 46.82 116.86 47.16 115.04 47.52 113.22 47.93 111.41 48.36 109.61 48.84 108.89 49.04 108.17 49.23 107.44 49.43 106.73 49.61 106.01 49.81 105.28 49.99 104.57 50.17 103.84 50.36 103.1 50.52 102.37 50.7 101.66 50.86 100.93 51.03 100.19 51.18 99.45 51.35 98.71 51.49 97.98 51.65 97.25 51.79 96.5 51.93 95.76 52.06 95.02 52.2 94.28 52.33 93.53 52.45 92.79 52.58 92.05 52.69 91.31 52.8 90.55 52.91 89.8 53.02 89.05 53.13 88.31 53.23 87.56 53.32 86.81 53.41 86.07 53.5 85.31 53.57 84.56 53.65 83.8 53.74 83.05 53.81 82.29 53.87 81.55 53.94 80.79 54.01 80.04 54.06 79.27 54.12 78.52 54.16 77.76 54.21 77.01 54.25 76.24 54.29 75.49 54.32 74.73 54.35 73.97 54.37 73.21 54.4 72.46 54.42 71.69 54.43 70.95 54.44 70.18 54.45 69.41 54.45 68.67 54.45 67.9 54.44 67.16 54.44 66.39 54.43 65.64 54.42 64.88 54.39 64.1 54.36 63.36 54.33 62.6 54.3 61.85 54.26 61.08 54.22 60.33 54.18 59.57 54.15 58.81 54.09 58.06 54.03 57.3 53.96 56.55 53.91 55.81 53.84 55.04 53.78 54.29 53.69 53.54 53.61 52.79 53.53 52.05 53.45 51.28 53.36 50.53 53.26 49.78 53.17 49.02 53.07 48.28 52.96 47.55 52.86 47.04 52.78 46.55 52.68 46.05 52.59 45.55 52.48 45.05 52.38 44.55 52.28 44.07 52.17 43.57 52.06 43.08 51.94 42.59 51.82 42.1 51.69 41.62 51.56 41.13 51.44 40.66 51.31 40.18 51.15 39.69 51.03 39.21 50.87 38.75 50.73 38.26 50.57 37.79 50.42 37.31 50.25 36.85 50.09 36.38 49.93 35.92 49.75 35.45 49.57 34.99 49.4 34.53 49.22 34.07 49.04 33.62 48.86 33.15 48.65 32.7 48.47 32.25 48.27 31.8 48.07 31.37 47.86 30.92 47.66 30.48 47.45 30.03 47.24 29.6 47.02 29.17 46.79 28.75 46.58 28.3 46.35 27.9 46.12 27.45 45.89 27.04 45.64 26.63 45.42 26.21 45.17 25.8 44.92 25.39 44.67 24.98 44.43 24.58 44.18 24.18 43.92 23.78 43.65 23.39 43.39 23 43.12 22.6 42.85 22.21 42.58 21.83 42.31 21.45 42.03 21.07 41.76 20.7 41.48 20.34 41.18 19.97 40.89 19.6 40.6 19.24 40.31 18.88 40.01 18.53 39.71 18.17 39.4 17.82 39.11 17.49 38.79"/><polygon class="cls-1" points="16.27 31.53 17.66 32.08 19.04 32.62 20.41 33.15 21.8 33.66 23.19 34.15 24.61 34.63 26.01 35.07 27.44 35.49 28.85 35.9 30.28 36.27 31.74 36.63 33.19 36.96 34.63 37.27 36.1 37.55 37.58 37.82 39.06 38.05 40.56 38.27 42.05 38.46 43.56 38.64 45.09 38.77 46.61 38.89 48.14 38.98 49.69 39.06 51.26 39.11 52.84 39.13 54.42 39.13 56.02 39.11 57.62 39.06 59.23 38.98 60.87 38.89 62.51 38.77 64.16 38.62 65.82 38.44 67.5 38.26 69.2 38.04 70.89 37.79 72.61 37.54 74.33 37.25 76.06 36.96 77.81 36.65 79.54 36.31 81.3 35.97 83.05 35.6 84.81 35.25 86.58 34.87 88.35 34.47 91.88 33.66 95.45 32.82 98.99 31.99 102.54 31.12 106.06 30.28 109.58 29.43 111.33 29.02 113.06 28.61 114.79 28.22 116.52 27.83 118.24 27.45 119.93 27.08 121.63 26.73 123.31 26.38 124.99 26.05 126.64 25.74 128.29 25.46 129.91 25.18 131.53 24.92 133.13 24.7 134.71 24.47 136.27 24.29 137.82 24.13 139.35 23.99 140.87 23.86 141.6 23.82 142.35 23.79 143.08 23.75 143.82 23.74 144.55 23.71 145.26 23.71 145.98 23.71 146.69 23.71 147.39 23.72 148.09 23.75 148.77 23.78 149.45 23.82 150.13 23.86 150.82 23.92 151.48 23.99 152.14 24.06 152.81 24.15 153.44 24.25 154.08 24.34 154.72 24.46 155.35 24.58 155.96 24.72 156.58 24.85 157.18 25.02 157.78 25.18 158.36 25.36 158.94 25.54 159.53 25.73 160.09 25.95 160.66 26.16 161.21 26.39 161.73 26.63 162.28 26.9 162.81 27.15 163.33 27.44 163.84 27.72 164.35 28.03 164.84 28.34 165.31 28.67 165.79 29 166.27 29.36 166.74 29.71 167.18 30.09 167.63 30.49 168.06 30.9 168.48 31.31 168.9 31.75 169.29 32.19 169.7 32.65 170.08 33.12 170.46 33.61 170.84 34.09 171.19 34.61 171.56 35.12 171.91 35.65 172.25 36.18 172.59 36.73 172.92 37.27 173.25 37.83 173.58 38.4 173.89 38.98 174.19 39.57 174.81 40.76 175.4 41.97 175.96 43.2 176.54 44.46 177.1 45.71 177.65 47 178.73 49.54 176.84 47.44 175.88 46.41 174.93 45.36 173.96 44.35 172.96 43.34 171.97 42.38 171.46 41.89 170.94 41.43 170.43 40.96 169.91 40.52 169.37 40.07 168.85 39.63 168.31 39.2 167.76 38.78 167.19 38.39 166.65 38 166.08 37.61 165.5 37.24 164.92 36.89 164.31 36.55 163.72 36.21 163.11 35.9 162.49 35.6 161.85 35.32 161.22 35.05 160.58 34.81 159.91 34.57 159.24 34.35 158.56 34.15 157.85 33.96 157.16 33.78 156.46 33.64 155.74 33.48 155.01 33.35 154.3 33.24 153.55 33.13 152.82 33.04 152.06 32.96 151.3 32.89 150.55 32.84 149.79 32.78 149.01 32.76 148.23 32.73 147.46 32.7 146.68 32.7 145.9 32.7 145.11 32.72 144.33 32.73 142.74 32.8 141.17 32.88 139.59 33 138 33.12 136.43 33.28 134.85 33.44 133.31 33.62 131.78 33.81 130.25 34.02 128.73 34.22 127.24 34.43 125.73 34.66 124.25 34.89 122.77 35.14 121.32 35.39 119.85 35.65 116.91 36.19 114 36.75 111.09 37.34 108.16 37.93 105.21 38.57 102.25 39.2 99.28 39.85 96.26 40.5 93.25 41.14 90.22 41.76 87.19 42.37 85.67 42.65 84.17 42.93 82.63 43.2 81.11 43.46 79.61 43.71 78.07 43.95 76.55 44.18 75.05 44.39 73.53 44.57 72.02 44.75 70.5 44.91 68.98 45.07 67.49 45.19 65.98 45.31 64.47 45.39 62.98 45.46 61.5 45.49 60.02 45.5 58.53 45.5 57.05 45.48 55.59 45.43 54.12 45.35 52.65 45.24 51.21 45.09 49.77 44.92 48.33 44.73 46.9 44.5 45.48 44.23 44.07 43.95 42.65 43.65 41.25 43.31 39.87 42.95 38.47 42.55 37.1 42.13 35.72 41.7 34.34 41.22 32.98 40.76 31.62 40.25 30.27 39.73 28.92 39.19 27.57 38.62 26.23 38.04 24.9 37.45 23.56 36.83 22.23 36.21 20.9 35.58 19.59 34.92 18.27 34.26 16.96 33.58 15.64 32.89 14.32 32.19 13.01 31.49 10.4 30.05 7.81 28.58 5.19 27.11 0 24.1 2.7 25.39 5.39 26.68 8.11 27.95 9.45 28.57 10.81 29.18 12.16 29.78 13.53 30.38 14.91 30.96 16.27 31.53"/></g><polygon class="cls-2" points="189.45 41.42 184.38 32.85 174.62 34.99 181.53 28.46 175.25 20.74 184.9 24.9 191.15 17.51 189.91 27.06 199.62 31.24 189.56 31.92 189.45 41.42"/><polygon class="cls-2" points="166.28 22.66 160.02 16.25 151.94 20.19 156.6 13.01 149.47 7.6 158.79 9.18 162.69 1.39 163.63 10.01 173.02 11.6 164.36 14.33 166.28 22.66"/><polygon class="cls-2" points="139.79 18.32 133.53 13.4 126.87 17.82 130.14 10.95 123.21 7.01 131.61 7.32 134.14 0 135.98 7.48 144.43 7.79 137.13 11.21 139.79 18.32"/><polygon class="cls-2" points="117.03 22.11 110.71 19.18 105.93 24.29 107.33 17.77 100.64 15.82 107.85 14.39 108.52 7.65 111.6 13.65 118.86 12.21 113.33 16.59 117.03 22.11"/><polygon class="cls-2" points="97.14 29.99 91.72 27.48 87.62 31.85 88.82 26.27 83.09 24.6 89.27 23.37 89.85 17.59 92.49 22.73 98.71 21.5 93.97 25.25 97.14 29.99"/></svg>