<svg xmlns="http://www.w3.org/2000/svg" width="838" height="70" viewBox="0 0 838 70">
  <defs>
    <style>
      .cls-1 {
        fill: #fff;
      }

      .cls-1, .cls-2, .cls-3 {
        fill-rule: evenodd;
      }

      .cls-2 {
        fill: #363636;
      }

      .cls-3 {
        fill: #292929;
      }
    </style>
  </defs>
  <path id="Give_don_the_change_he_needs" data-name="Give don the change he needs" class="cls-1" d="M251.875,65.621h2.1v2.273l-0.149.047a7.359,7.359,0,0,1-2.242.43,4.362,4.362,0,0,1-3.156-1.18,4.319,4.319,0,0,1,0-6.031,4.111,4.111,0,0,1,3.015-1.219,7.676,7.676,0,0,1,3.875,1.133V59.481a14.3,14.3,0,0,0-2.093-.73,7.471,7.471,0,0,0-1.75-.2,5.812,5.812,0,0,0-4.211,1.625,5.429,5.429,0,0,0-1.68,4.07,5.236,5.236,0,0,0,1.621,3.9,5.937,5.937,0,0,0,4.332,1.582,9.984,9.984,0,0,0,4-.875V64.231h-3.664v1.391Zm9.4,3.984h1.562V58.691h-1.562V69.606Zm11.077-3.25-3.283-7.664H267.5l4.7,10.961h0.354l4.614-10.961h-1.556ZM281.8,69.59h6.336V68.2h-4.773V64.809h4.469v-1.4h-4.469V60.082h4.625V58.691H281.8v10.9Zm22.794,0a15.167,15.167,0,0,0,1.969-.082,5.491,5.491,0,0,0,1.133-.324,5.368,5.368,0,0,0,3.477-5.031,5.468,5.468,0,0,0-.766-2.828,5.042,5.042,0,0,0-2.063-1.965,7.763,7.763,0,0,0-3.523-.668h-3.68v10.9H304.6Zm1.7-9.422a4.21,4.21,0,0,1,1.074.352,3.793,3.793,0,0,1,1,.68,3.744,3.744,0,0,1,1.187,2.867,4.041,4.041,0,0,1-1.156,2.961,3.683,3.683,0,0,1-.793.606,4.278,4.278,0,0,1-1.082.406,7.993,7.993,0,0,1-1.82.16h-2V60.082h1.953A10.928,10.928,0,0,1,306.294,60.168Zm11.446-.031a5.4,5.4,0,0,0-1.655,4.047,5.273,5.273,0,0,0,1.644,3.965,5.691,5.691,0,0,0,4.11,1.582,6.04,6.04,0,0,0,4.283-1.582,5.227,5.227,0,0,0,1.7-4,5.312,5.312,0,0,0-1.683-4.016,5.87,5.87,0,0,0-4.212-1.6A5.776,5.776,0,0,0,317.74,60.137Zm7.249,1.066a3.9,3.9,0,0,1,1.221,2.918,4,4,0,0,1-1.221,2.977,4.492,4.492,0,0,1-6.077.023,3.921,3.921,0,0,1-1.209-2.937,3.991,3.991,0,0,1,1.205-2.992,4.238,4.238,0,0,1,3.08-1.172A4.149,4.149,0,0,1,324.989,61.2Zm16.864,5.965-7.359-8.477h-1.266V69.606H334.7V61.2l7.3,8.406h1.344V58.691h-1.485v8.477Zm12.216-7.1h3.743v9.539h1.57V60.066h3.805V58.676h-9.118v1.391ZM375.8,63.41h-6.132V58.691H368.1V69.606h1.563v-4.75H375.8v4.75h1.563V58.691H375.8V63.41Zm7.409,6.18h6.336V68.2H384.77V64.809h4.468v-1.4H384.77V60.082H389.4V58.691h-6.188v10.9Zm24.857-1.3a4.344,4.344,0,0,1-3.117-1.156,3.89,3.89,0,0,1-1.219-2.953,3.933,3.933,0,0,1,1.238-2.965,4.327,4.327,0,0,1,3.113-1.183,7.525,7.525,0,0,1,3.743,1.094v-1.68a9.839,9.839,0,0,0-3.821-.9,5.832,5.832,0,0,0-4.191,1.625,5.325,5.325,0,0,0-1.7,4.008,5.493,5.493,0,0,0,.742,2.789A5.407,5.407,0,0,0,404.868,69a6.116,6.116,0,0,0,3.1.734,8.158,8.158,0,0,0,3.969-.937V67.074a7.071,7.071,0,0,1-3.875,1.219h0ZM425,63.41h-6.133V58.691H417.3V69.606h1.562v-4.75H425v4.75h1.562V58.691H425V63.41Zm6.206,6.2h1.605l1.364-3.234h4.656l1.455,3.234h1.6l-4.893-10.977h-1.1Zm3.589-4.625,1.633-3.953,1.761,3.953h-3.394Zm20.4,2.188-7.359-8.477h-1.266V69.606h1.469V61.2l7.3,8.406h1.344V58.691h-1.485v8.477Zm13.159-1.547h2.1v2.273l-0.149.047a7.359,7.359,0,0,1-2.242.43,4.366,4.366,0,0,1-3.156-1.18,4.319,4.319,0,0,1,0-6.031,4.113,4.113,0,0,1,3.016-1.219,7.682,7.682,0,0,1,3.875,1.133V59.481a14.346,14.346,0,0,0-2.094-.73,7.465,7.465,0,0,0-1.75-.2,5.814,5.814,0,0,0-4.211,1.625,5.429,5.429,0,0,0-1.68,4.07,5.236,5.236,0,0,0,1.621,3.9,5.937,5.937,0,0,0,4.332,1.582,9.981,9.981,0,0,0,4-.875V64.231h-3.664v1.391Zm9.386,3.969h6.335V68.2H479.3V64.809h4.469v-1.4H479.3V60.082h4.625V58.691h-6.187v10.9Zm27.02-6.18H498.62V58.691h-1.562V69.606h1.562v-4.75h6.133v4.75h1.563V58.691h-1.563V63.41Zm7.409,6.18H518.5V68.2h-4.774V64.809h4.469v-1.4h-4.469V60.082h4.625V58.691h-6.187v10.9Zm28-2.421L532.8,58.691h-1.266V69.606H533V61.2l7.3,8.406h1.343V58.691h-1.484v8.477Zm7.26,2.421h6.336V68.2h-4.773V64.809h4.469v-1.4h-4.469V60.082h4.625V58.691h-6.188v10.9Zm11.44,0H565.2V68.2h-4.773V64.809h4.469v-1.4h-4.469V60.082h4.625V58.691h-6.188v10.9Zm14.909,0a15.167,15.167,0,0,0,1.969-.082,5.509,5.509,0,0,0,1.133-.324,5.369,5.369,0,0,0,3.476-5.031,5.467,5.467,0,0,0-.765-2.828,5.042,5.042,0,0,0-2.063-1.965A7.763,7.763,0,0,0,574,58.691h-3.68v10.9h3.453Zm1.695-9.422a4.2,4.2,0,0,1,1.075.352,3.809,3.809,0,0,1,1,.68,3.748,3.748,0,0,1,1.187,2.867,4.041,4.041,0,0,1-1.156,2.961,3.708,3.708,0,0,1-.793.606,4.278,4.278,0,0,1-1.082.406,8,8,0,0,1-1.82.16h-2V60.082h1.953A10.9,10.9,0,0,1,575.463,60.168Zm14.417,6.755a1.282,1.282,0,0,1-.488,1.024,1.841,1.841,0,0,1-1.223.409,3.679,3.679,0,0,1-2.93-1.6v1.984a4.8,4.8,0,0,0,2.946.994,3.216,3.216,0,0,0,2.285-.82,2.784,2.784,0,0,0,.879-2.133,3.5,3.5,0,0,0-2-3.036l-1.193-.706a4.542,4.542,0,0,1-1.166-.9,1.4,1.4,0,0,1-.363-0.918,1.074,1.074,0,0,1,.492-0.907,2.1,2.1,0,0,1,1.258-.354,3.615,3.615,0,0,1,2.539,1.135V59.318a4.4,4.4,0,0,0-2.508-.768,3.342,3.342,0,0,0-2.324.8,2.685,2.685,0,0,0-.894,2.094,2.544,2.544,0,0,0,.472,1.52,5.4,5.4,0,0,0,1.59,1.342l1.188,0.721a2.432,2.432,0,0,1,1.437,1.891h0Z"/>
  <path id="Trumpsformation_copy" data-name="Trumpsformation copy" class="cls-2" d="M81.616,7.626a5.85,5.85,0,0,1,2.3,3.882H84.59V3.627H83.506q-1.553,1.29-5.449,1.289H60.039q-3.779,0-5.156-1.289H53.857v7.881h1.025a4.778,4.778,0,0,1,1.831-3.779q1.626-1.143,5.2-1.143h4.98V32.831a8.051,8.051,0,0,1-.814,4.208A3.413,3.413,0,0,1,63,38.285v1H75.156v-1q-2.2,0-2.959-1.085t-0.762-4.194V6.586H76.65A9.48,9.48,0,0,1,81.616,7.626ZM118.83,24.841q1.86,1.468,5.142,6.781a67.349,67.349,0,0,0,5.244,7.659h7.031v-1a5.2,5.2,0,0,1-3.152-1.517,29.8,29.8,0,0,1-4.216-5.89,45.354,45.354,0,0,0-3.888-5.792,13.9,13.9,0,0,0-3.041-2.739q7.091-2.109,7.09-8.437a7.963,7.963,0,0,0-3.12-6.46,12.827,12.827,0,0,0-8.335-2.534H103.493v1q2.315,0,3.106,1.159a7.965,7.965,0,0,1,.791,4.208V32.831a8.1,8.1,0,0,1-.806,4.252q-0.806,1.2-3.091,1.2v1h12.364v-1a3.522,3.522,0,0,1-3.062-1.2,7.65,7.65,0,0,1-.864-4.256V23.373h2.783A6.488,6.488,0,0,1,118.83,24.841Zm3.018-16.453a7.234,7.234,0,0,1,2.388,5.64,7.789,7.789,0,0,1-2.154,5.742,7.983,7.983,0,0,1-5.932,2.168h-4.219V6.234h3.6A9.07,9.07,0,0,1,121.848,8.388Zm46.691,29.4a8.5,8.5,0,0,1-6.445-2.417,9.2,9.2,0,0,1-2.314-6.636v-17.4a7.866,7.866,0,0,1,.82-4.248q0.821-1.171,3.135-1.172v-1H151.313v1q2.285,0,3.091,1.2a8.159,8.159,0,0,1,.805,4.277v16.9a11.876,11.876,0,0,0,3.121,8.584q3.12,3.252,8.569,3.252,6.621,0,11.455-5.654v4.8h8.467v-1a3.458,3.458,0,0,1-3.062-1.217,7.871,7.871,0,0,1-.835-4.237V11.4a7.808,7.808,0,0,1,.85-4.281,3.482,3.482,0,0,1,3.047-1.2v-1H174.692v1a3.391,3.391,0,0,1,2.856,1.274,7.921,7.921,0,0,1,.806,4.2V32.074q-3.692,5.713-9.815,5.713h0Zm59.055-5.83-11-27.041h-8.707v1a7.64,7.64,0,0,1,4.483,2.4L210.3,31.957q-0.352,3.6-1.3,4.818a4.53,4.53,0,0,1-3.091,1.51v1h10.693v-1q-4.471-.824-4.472-5.27,0-.441.03-0.939l1.932-21.134L225.7,39.281h0.9l11.773-28.407L240.214,33.1q0.03,0.5.03,0.913a4.589,4.589,0,0,1-.808,2.976,4.417,4.417,0,0,1-2.774,1.3v1h12.363v-1a4.252,4.252,0,0,1-3.12-1.325q-0.864-1.119-1.157-4.505l-1.729-21.182C243,11,242.99,10.737,242.99,10.482q0-4.482,3.867-4.57v-1h-8.115ZM268.251,5.912a3.476,3.476,0,0,1,3.061,1.2,7.925,7.925,0,0,1,.835,4.281V32.948a7.583,7.583,0,0,1-.835,4.106,3.436,3.436,0,0,1-3.061,1.231v1h12.363v-1a3.515,3.515,0,0,1-3.061-1.174q-0.836-1.174-.835-4.286V23.2a46.316,46.316,0,0,0,5.273.352q5.859,0,8.994-2.3a7.665,7.665,0,0,0,3.135-6.577,8.447,8.447,0,0,0-3.589-7.031q-3.59-2.725-9.741-2.725H268.251v1Zm18.838,2.739a8.708,8.708,0,0,1,2.226,6.138,6.918,6.918,0,0,1-2.241,5.449,8.862,8.862,0,0,1-6.108,1.992,13.338,13.338,0,0,1-4.248-.586V6.234h4.248A7.914,7.914,0,0,1,287.089,8.651Zm44.245-3.442a0.7,0.7,0,0,1-.557.176,6.82,6.82,0,0,1-1.757-.41,15.7,15.7,0,0,0-4.981-.908,9.4,9.4,0,0,0-6.753,2.462,8.452,8.452,0,0,0-2.593,6.419,10.642,10.642,0,0,0,.644,3.767,9.441,9.441,0,0,0,1.989,3.151,28.951,28.951,0,0,0,5.365,3.918q4.928,3.007,6.478,4.914a6.245,6.245,0,0,1,1.55,3.987,5.661,5.661,0,0,1-1.886,4.457,7.285,7.285,0,0,1-5.015,1.671,8.223,8.223,0,0,1-8.275-8.467h-1.025v9.287h1.025a1.558,1.558,0,0,1,1.317-1.318,8.14,8.14,0,0,1,1.9.527,18.686,18.686,0,0,0,5.967,1.289,9.8,9.8,0,0,0,9.77-9.785,8.87,8.87,0,0,0-1.875-5.566q-1.875-2.431-7.324-5.684-4.687-2.812-6.094-4.6a6.247,6.247,0,0,1-1.406-3.955,4.621,4.621,0,0,1,1.7-3.75,6.8,6.8,0,0,1,4.482-1.406,7.446,7.446,0,0,1,5.2,1.875,7.863,7.863,0,0,1,2.417,5.215h1.025V4.418h-0.967A2.481,2.481,0,0,1,331.334,5.209Zm43.6,21.357h0.937V16.9h-0.937a5.5,5.5,0,0,1-1.143,3.149,3.561,3.561,0,0,1-2.695.923h-8.965V6.586h8.76q3.222,0,4.131.85a7.036,7.036,0,0,1,1.464,3.574h0.792V4.916H353.7v1A3.493,3.493,0,0,1,356.771,7.1a8.047,8.047,0,0,1,.82,4.3V32.831a7.844,7.844,0,0,1-.835,4.267,3.5,3.5,0,0,1-3.061,1.188v1h12.363v-1a3.535,3.535,0,0,1-3.076-1.189,7.74,7.74,0,0,1-.85-4.27V22.67h9.082q3.545,0,3.721,3.9h0Zm28.278,8.291a18.68,18.68,0,0,0,26.016,0,17.474,17.474,0,0,0,5.332-12.92,17.087,17.087,0,0,0-5.288-12.686,17.774,17.774,0,0,0-12.935-5.186,18.149,18.149,0,0,0-13.154,5.112,17.04,17.04,0,0,0-5.273,12.759A17.52,17.52,0,0,0,403.213,34.857ZM406.8,9.926a11.716,11.716,0,0,1,9.653-4.541A11.185,11.185,0,0,1,425.713,10q3.575,4.614,3.574,12.231a18.847,18.847,0,0,1-3.647,11.836,11.44,11.44,0,0,1-9.507,4.746,11.271,11.271,0,0,1-9.375-4.644Q403.184,29.526,403.184,22T406.8,9.926Zm63.992,14.915q1.86,1.468,5.141,6.781a67.481,67.481,0,0,0,5.244,7.659h7.032v-1a5.207,5.207,0,0,1-3.153-1.517,29.8,29.8,0,0,1-4.216-5.89,45.354,45.354,0,0,0-3.888-5.792,13.923,13.923,0,0,0-3.04-2.739Q481,20.238,481,13.91a7.964,7.964,0,0,0-3.121-6.46,12.825,12.825,0,0,0-8.335-2.534H455.457v1q2.313,0,3.105,1.159a7.965,7.965,0,0,1,.791,4.208V32.831a8.1,8.1,0,0,1-.806,4.252q-0.806,1.2-3.09,1.2v1H467.82v-1a3.522,3.522,0,0,1-3.062-1.2,7.65,7.65,0,0,1-.864-4.256V23.373h2.783A6.492,6.492,0,0,1,470.794,24.841Zm3.017-16.453a7.234,7.234,0,0,1,2.388,5.64,7.792,7.792,0,0,1-2.153,5.742,7.987,7.987,0,0,1-5.933,2.168h-4.219V6.234h3.6A9.068,9.068,0,0,1,473.811,8.388Zm53.738,23.569-11-27.041h-8.707v1a7.634,7.634,0,0,1,4.483,2.4l-2.08,23.643q-0.353,3.6-1.3,4.818a4.528,4.528,0,0,1-3.091,1.51v1h10.694v-1q-4.473-.824-4.472-5.27c0-.294.009-0.607,0.029-0.939l1.933-21.134,11.617,28.339h0.9L538.33,10.875,540.169,33.1q0.029,0.5.029,0.913a4.6,4.6,0,0,1-.807,2.976,4.423,4.423,0,0,1-2.775,1.3v1h12.363v-1a4.252,4.252,0,0,1-3.12-1.325Q545,35.841,544.7,32.455l-1.729-21.182q-0.029-.41-0.029-0.791,0-4.482,3.867-4.57v-1H538.7Zm72.707,7.324v-1a4.907,4.907,0,0,1-3.064-.764,7.589,7.589,0,0,1-1.833-3.377l-9.978-29.61h-3.537l-9.5,28.347a10.975,10.975,0,0,1-2.141,4.14,5.233,5.233,0,0,1-2.962,1.263v1h8.877v-1q-2.716-.059-2.716-2.232a13.708,13.708,0,0,1,.879-3.788l2.345-6.9h11.032l3.193,9.542a3.957,3.957,0,0,1,.264,1.322q0,2.056-2.956,2.056v1h12.1ZM582.077,8.7l4.873,14.561h-9.691Zm59.246-1.069a5.847,5.847,0,0,1,2.3,3.882H644.3V3.627h-1.084q-1.553,1.29-5.449,1.289H619.745q-3.779,0-5.156-1.289h-1.025v7.881h1.025a4.78,4.78,0,0,1,1.831-3.779q1.626-1.143,5.2-1.143H626.6V32.831a8.049,8.049,0,0,1-.815,4.208,3.411,3.411,0,0,1-3.082,1.246v1h12.159v-1q-2.2,0-2.959-1.085t-0.762-4.194V6.586h5.215A9.481,9.481,0,0,1,641.323,7.626Zm21.437-2.71v1q2.286,0,3.091,1.159t0.806,4.325V32.831q0,3.108-.821,4.282a3.514,3.514,0,0,1-3.076,1.173v1h12.363v-1a3.5,3.5,0,0,1-3.046-1.187,7.729,7.729,0,0,1-.85-4.267V11.4a7.808,7.808,0,0,1,.85-4.281,3.481,3.481,0,0,1,3.046-1.2v-1H662.76Zm38.122,29.941a18.68,18.68,0,0,0,26.016,0,17.47,17.47,0,0,0,5.332-12.92,17.087,17.087,0,0,0-5.288-12.686,17.774,17.774,0,0,0-12.935-5.186,18.149,18.149,0,0,0-13.154,5.112,17.044,17.044,0,0,0-5.273,12.759A17.52,17.52,0,0,0,700.882,34.857Zm3.589-24.932a11.717,11.717,0,0,1,9.654-4.541A11.183,11.183,0,0,1,723.382,10q3.575,4.614,3.575,12.231a18.848,18.848,0,0,1-3.648,11.836,11.437,11.437,0,0,1-9.507,4.746,11.271,11.271,0,0,1-9.375-4.644Q700.853,29.526,700.853,22T704.471,9.926Zm77.263-2.769q0.894,1.246.894,4.409v20.1L761.038,4.916h-8.82v1A5.571,5.571,0,0,1,756.129,7.6q1.186,1.422,1.186,4.677V32.391q0,3.285-.879,4.59t-3.369,1.3v1H763.5v-1a4.619,4.619,0,0,1-3.472-1.1,5.23,5.23,0,0,1-1.04-3.652V9.4l24.348,29.883h1.053V11.332q0-3.076.966-4.248a4.288,4.288,0,0,1,3.457-1.172v-1H778.438v1Q780.841,5.912,781.734,7.157Z"/>
  <path id="Trumpsformation" class="cls-1" d="M78.616,4.626a5.85,5.85,0,0,1,2.3,3.882H81.59V0.627H80.506q-1.553,1.29-5.449,1.289H57.039q-3.779,0-5.156-1.289H50.857V8.508h1.025a4.778,4.778,0,0,1,1.831-3.779q1.626-1.143,5.2-1.143h4.98V29.831a8.051,8.051,0,0,1-.814,4.208A3.413,3.413,0,0,1,60,35.285v1H72.156v-1q-2.2,0-2.959-1.085t-0.762-4.194V3.586H73.65A9.48,9.48,0,0,1,78.616,4.626ZM115.83,21.841q1.86,1.468,5.142,6.781a67.355,67.355,0,0,0,5.244,7.659h7.031v-1a5.2,5.2,0,0,1-3.152-1.517,29.8,29.8,0,0,1-4.216-5.89,45.354,45.354,0,0,0-3.888-5.792,13.9,13.9,0,0,0-3.041-2.739q7.091-2.109,7.09-8.437a7.963,7.963,0,0,0-3.12-6.46,12.827,12.827,0,0,0-8.335-2.534H100.493v1q2.315,0,3.106,1.159a7.965,7.965,0,0,1,.791,4.208V29.831a8.1,8.1,0,0,1-.806,4.252q-0.806,1.2-3.091,1.2v1h12.364v-1a3.522,3.522,0,0,1-3.062-1.2,7.65,7.65,0,0,1-.864-4.256V20.373h2.783A6.488,6.488,0,0,1,115.83,21.841Zm3.018-16.453a7.238,7.238,0,0,1,2.388,5.64,7.789,7.789,0,0,1-2.154,5.742,7.984,7.984,0,0,1-5.932,2.168h-4.219V3.234h3.6A9.07,9.07,0,0,1,118.848,5.388Zm46.691,29.4a8.5,8.5,0,0,1-6.445-2.417,9.2,9.2,0,0,1-2.314-6.636V8.332a7.866,7.866,0,0,1,.82-4.248q0.821-1.171,3.135-1.172v-1H148.313v1q2.285,0,3.091,1.2a8.159,8.159,0,0,1,.805,4.277v16.9a11.88,11.88,0,0,0,3.12,8.584q3.121,3.252,8.57,3.252,6.621,0,11.455-5.654v4.8h8.467v-1a3.458,3.458,0,0,1-3.062-1.217,7.871,7.871,0,0,1-.835-4.237V8.4a7.808,7.808,0,0,1,.85-4.281,3.482,3.482,0,0,1,3.047-1.2v-1H171.692v1a3.391,3.391,0,0,1,2.856,1.274,7.921,7.921,0,0,1,.806,4.2V29.074q-3.692,5.713-9.815,5.713h0Zm59.055-5.83-11-27.041h-8.707v1a7.64,7.64,0,0,1,4.483,2.4L207.3,28.957q-0.352,3.6-1.3,4.818a4.53,4.53,0,0,1-3.091,1.51v1h10.693v-1q-4.471-.824-4.472-5.27,0-.441.03-0.939l1.932-21.134L222.7,36.281h0.9L235.376,7.875,237.214,30.1q0.03,0.5.03,0.913a4.589,4.589,0,0,1-.808,2.976,4.417,4.417,0,0,1-2.774,1.3v1h12.363v-1a4.252,4.252,0,0,1-3.12-1.325q-0.864-1.119-1.157-4.505L240.019,8.273C240,8,239.99,7.736,239.99,7.482q0-4.482,3.867-4.57v-1h-8.115ZM265.251,2.912a3.476,3.476,0,0,1,3.061,1.2,7.925,7.925,0,0,1,.835,4.281V29.948a7.583,7.583,0,0,1-.835,4.106,3.436,3.436,0,0,1-3.061,1.231v1h12.363v-1a3.515,3.515,0,0,1-3.061-1.174q-0.836-1.174-.835-4.286V20.2a46.316,46.316,0,0,0,5.273.352q5.859,0,8.994-2.3a7.665,7.665,0,0,0,3.135-6.577,8.447,8.447,0,0,0-3.589-7.031q-3.59-2.725-9.741-2.725H265.251v1Zm18.838,2.739a8.708,8.708,0,0,1,2.226,6.138,6.918,6.918,0,0,1-2.241,5.449,8.862,8.862,0,0,1-6.108,1.992,13.338,13.338,0,0,1-4.248-.586V3.234h4.248A7.914,7.914,0,0,1,284.089,5.651Zm44.245-3.442a0.7,0.7,0,0,1-.557.176,6.82,6.82,0,0,1-1.757-.41,15.7,15.7,0,0,0-4.981-.908,9.4,9.4,0,0,0-6.753,2.462,8.452,8.452,0,0,0-2.593,6.419,10.642,10.642,0,0,0,.644,3.767,9.441,9.441,0,0,0,1.989,3.151,28.951,28.951,0,0,0,5.365,3.918q4.928,3.007,6.478,4.914a6.245,6.245,0,0,1,1.55,3.987,5.661,5.661,0,0,1-1.886,4.457,7.285,7.285,0,0,1-5.015,1.671,8.223,8.223,0,0,1-8.275-8.467h-1.025v9.287h1.025a1.558,1.558,0,0,1,1.317-1.318,8.14,8.14,0,0,1,1.9.527,18.692,18.692,0,0,0,5.967,1.289,9.8,9.8,0,0,0,9.77-9.785,8.87,8.87,0,0,0-1.875-5.566q-1.875-2.431-7.324-5.684-4.687-2.812-6.094-4.6A6.247,6.247,0,0,1,314.8,7.541a4.621,4.621,0,0,1,1.7-3.75,6.8,6.8,0,0,1,4.482-1.406,7.446,7.446,0,0,1,5.2,1.875A7.863,7.863,0,0,1,328.6,9.475h1.025V1.418h-0.967A2.505,2.505,0,0,1,328.334,2.209Zm43.6,21.357h0.937V13.9h-0.937a5.5,5.5,0,0,1-1.143,3.149,3.561,3.561,0,0,1-2.695.923h-8.965V3.586h8.76q3.222,0,4.131.85a7.044,7.044,0,0,1,1.465,3.574h0.79V1.916H350.7v1A3.493,3.493,0,0,1,353.771,4.1a8.047,8.047,0,0,1,.82,4.3V29.831a7.844,7.844,0,0,1-.835,4.267,3.5,3.5,0,0,1-3.061,1.188v1h12.363v-1a3.535,3.535,0,0,1-3.076-1.189,7.74,7.74,0,0,1-.85-4.27V19.67h9.082q3.545,0,3.721,3.9h0Zm28.278,8.291a18.68,18.68,0,0,0,26.016,0,17.474,17.474,0,0,0,5.332-12.92,17.087,17.087,0,0,0-5.288-12.686,17.774,17.774,0,0,0-12.935-5.186,18.149,18.149,0,0,0-13.154,5.112,17.041,17.041,0,0,0-5.273,12.759A17.52,17.52,0,0,0,400.213,31.857ZM403.8,6.926a11.716,11.716,0,0,1,9.653-4.541A11.185,11.185,0,0,1,422.713,7q3.575,4.614,3.575,12.231a18.848,18.848,0,0,1-3.648,11.836,11.44,11.44,0,0,1-9.507,4.746,11.271,11.271,0,0,1-9.375-4.644Q400.184,26.526,400.184,19T403.8,6.926Zm63.992,14.915q1.86,1.468,5.141,6.781a67.487,67.487,0,0,0,5.244,7.659h7.032v-1a5.207,5.207,0,0,1-3.153-1.517,29.837,29.837,0,0,1-4.216-5.89,45.354,45.354,0,0,0-3.888-5.792,13.923,13.923,0,0,0-3.04-2.739Q478,17.238,478,10.91a7.961,7.961,0,0,0-3.121-6.46,12.825,12.825,0,0,0-8.335-2.534H452.457v1q2.313,0,3.105,1.159a7.955,7.955,0,0,1,.791,4.208V29.831a8.107,8.107,0,0,1-.805,4.252q-0.807,1.2-3.091,1.2v1H464.82v-1a3.522,3.522,0,0,1-3.062-1.2,7.65,7.65,0,0,1-.864-4.256V20.373h2.783A6.492,6.492,0,0,1,467.794,21.841Zm3.017-16.453a7.234,7.234,0,0,1,2.388,5.64,7.792,7.792,0,0,1-2.153,5.742,7.987,7.987,0,0,1-5.933,2.168h-4.219V3.234h3.6A9.068,9.068,0,0,1,470.811,5.388Zm53.738,23.569-11-27.041h-8.706v1a7.634,7.634,0,0,1,4.482,2.4l-2.08,23.643q-0.353,3.6-1.3,4.818a4.528,4.528,0,0,1-3.091,1.51v1h10.694v-1q-4.473-.824-4.472-5.27c0-.294.009-0.607,0.029-0.939l1.933-21.134,11.617,28.339h0.9L535.33,7.875,537.169,30.1q0.029,0.5.029,0.913a4.6,4.6,0,0,1-.807,2.976,4.423,4.423,0,0,1-2.775,1.3v1h12.363v-1a4.252,4.252,0,0,1-3.12-1.325Q542,32.841,541.7,29.455L539.973,8.273q-0.029-.41-0.029-0.791,0-4.482,3.867-4.57v-1H535.7Zm72.707,7.324v-1a4.907,4.907,0,0,1-3.064-.764,7.589,7.589,0,0,1-1.833-3.377l-9.978-29.61h-3.537l-9.5,28.347a10.975,10.975,0,0,1-2.141,4.14,5.233,5.233,0,0,1-2.962,1.263v1h8.877v-1q-2.716-.059-2.716-2.232a13.708,13.708,0,0,1,.879-3.788l2.345-6.9h11.032l3.193,9.542a3.957,3.957,0,0,1,.264,1.322q0,2.056-2.956,2.056v1h12.1ZM579.077,5.7l4.873,14.561h-9.691Zm59.246-1.069a5.851,5.851,0,0,1,2.3,3.882H641.3V0.627h-1.084q-1.553,1.29-5.449,1.289H616.745q-3.779,0-5.156-1.289h-1.025V8.508h1.025a4.78,4.78,0,0,1,1.831-3.779q1.626-1.143,5.2-1.143H623.6V29.831a8.061,8.061,0,0,1-.814,4.208,3.414,3.414,0,0,1-3.083,1.246v1h12.159v-1q-2.2,0-2.959-1.085t-0.762-4.194V3.586h5.215A9.481,9.481,0,0,1,638.323,4.626Zm21.437-2.71v1q2.286,0,3.091,1.159T663.657,8.4V29.831q0,3.108-.821,4.282a3.514,3.514,0,0,1-3.076,1.173v1h12.363v-1a3.5,3.5,0,0,1-3.046-1.187,7.729,7.729,0,0,1-.85-4.267V8.4a7.808,7.808,0,0,1,.85-4.281,3.481,3.481,0,0,1,3.046-1.2v-1H659.76Zm38.122,29.941a18.68,18.68,0,0,0,26.016,0,17.47,17.47,0,0,0,5.332-12.92,17.087,17.087,0,0,0-5.288-12.686,17.774,17.774,0,0,0-12.935-5.186,18.149,18.149,0,0,0-13.154,5.112,17.044,17.044,0,0,0-5.273,12.759A17.52,17.52,0,0,0,697.882,31.857Zm3.589-24.932a11.717,11.717,0,0,1,9.654-4.541A11.183,11.183,0,0,1,720.382,7q3.575,4.614,3.575,12.231a18.848,18.848,0,0,1-3.648,11.836,11.439,11.439,0,0,1-9.507,4.746,11.271,11.271,0,0,1-9.375-4.644Q697.853,26.526,697.853,19T701.471,6.926Zm77.263-2.769q0.894,1.246.894,4.409v20.1L758.038,1.916h-8.82v1A5.571,5.571,0,0,1,753.129,4.6q1.186,1.422,1.186,4.677V29.391q0,3.285-.879,4.59t-3.369,1.3v1H760.5v-1a4.619,4.619,0,0,1-3.472-1.1,5.23,5.23,0,0,1-1.04-3.652V6.4l24.348,29.883h1.053V8.332q0-3.076.966-4.248a4.288,4.288,0,0,1,3.457-1.172v-1H775.438v1Q777.841,2.912,778.734,4.157Z"/>
  <path id="Polygon_5_copy" data-name="Polygon 5 copy" class="cls-3" d="M832.448,33.995l-8.577-6.359-8.729,6.145,3.34-10.2L810,17.1l10.642,0.055L824.121,7l3.236,10.234L838,17.445l-8.641,6.27Z"/>
  <path id="Polygon_5_copy_4" data-name="Polygon 5 copy 4" class="cls-1" d="M830.448,31.995l-8.577-6.359-8.729,6.145,3.34-10.2L808,15.1l10.642,0.055L822.12,5l3.237,10.234L836,15.445l-8.641,6.27Z"/>
  <path id="Polygon_5_copy_2" data-name="Polygon 5 copy 2" class="cls-2" d="M24.448,33.995l-8.577-6.359L7.142,33.781l3.34-10.2L2,17.1l10.641,0.055L16.12,7l3.237,10.234L30,17.445l-8.641,6.27Z"/>
  <path id="Polygon_5_copy_3" data-name="Polygon 5 copy 3" class="cls-1" d="M22.448,31.995l-8.577-6.359L5.142,31.781l3.34-10.2L0,15.1l10.641,0.055L14.12,5l3.237,10.234L28,15.445l-8.641,6.27Z"/>
</svg>
