<svg xmlns="http://www.w3.org/2000/svg" width="140" height="140" viewBox="0 0 140 140">
  <defs>
    <style>
      .cls-1 {
        fill: #fff;
        fill-rule: evenodd;
      }
    </style>
  </defs>
  <path class="cls-1" d="M42.244,38.19c0,1.576-2.551,4.127-4.127,4.127s-4.13-2.551-4.13-4.127c0-1.651,2.551-4.127,4.13-4.127S42.244,36.539,42.244,38.19ZM38.19,107.013c-1.652,0-4.127-2.552-4.127-4.128s2.476-4.129,4.127-4.129,4.129,2.551,4.129,4.129S39.841,107.013,38.19,107.013ZM50.123,46c0,1.652-2.551,4.127-4.127,4.127S41.869,47.648,41.869,46c0-1.576,2.551-4.13,4.127-4.13S50.123,44.421,50.123,46ZM46.072,99.131c-1.652,0-4.127-2.551-4.127-4.127s2.476-4.127,4.127-4.127S50.2,93.428,50.2,95,47.723,99.131,46.072,99.131Zm7.881-7.955c-1.651,0-4.129-2.551-4.129-4.127s2.478-4.13,4.129-4.13,4.127,2.551,4.127,4.13S55.6,91.177,53.953,91.177ZM58,53.951c0,1.652-2.551,4.127-4.052,4.127S49.9,55.6,49.9,53.951s2.551-4.127,4.054-4.127S58,52.3,58,53.951Zm7.955,7.806c0,1.651-2.551,4.2-4.127,4.2s-4.127-2.552-4.127-4.2c0-1.576,2.552-4.128,4.127-4.128S65.959,60.181,65.959,61.757ZM61.832,83.3c-1.651,0-4.127-2.552-4.127-4.127s2.476-4.127,4.127-4.127,4.127,2.551,4.127,4.127S63.483,83.3,61.832,83.3Zm8.706-7.506c-2.176,0-5.4-3.3-5.4-5.328s3.227-5.33,5.4-5.33,5.4,3.3,5.4,5.33S72.713,75.79,70.538,75.79Zm8.706-9.83c-1.651,0-4.2-2.552-4.2-4.127s2.552-4.13,4.2-4.13c1.576,0,4.127,2.554,4.127,4.13S80.819,65.96,79.243,65.96ZM83.3,79.168c0,1.651-2.552,4.127-4.13,4.127s-4.127-2.476-4.127-4.127,2.552-4.127,4.127-4.127S83.3,77.517,83.3,79.168Zm3.752-21.239c-1.652,0-4.127-2.478-4.127-4.054s2.476-4.052,4.127-4.052,4.127,2.476,4.127,4.052S88.7,57.929,87.049,57.929ZM91.177,87.05c0,1.649-2.476,4.127-4.052,4.127S83.071,88.7,83.071,87.05s2.479-4.13,4.054-4.13S91.177,85.4,91.177,87.05ZM95,50.124c-1.652,0-4.127-2.552-4.127-4.127s2.476-4.13,4.127-4.13c1.578,0,4.13,2.554,4.13,4.13S96.582,50.124,95,50.124Zm4.13,44.8c0,1.652-2.552,4.127-4.13,4.127s-4.127-2.476-4.127-4.127c0-1.576,2.552-4.127,4.127-4.127S99.134,93.353,99.134,94.928Zm3.676-52.686c-1.576,0-4.128-2.551-4.128-4.127s2.552-4.127,4.128-4.127c1.651,0,4.127,2.552,4.127,4.127S104.461,42.242,102.81,42.242Zm4.2,60.568c0,1.651-2.552,4.127-4.128,4.127s-4.127-2.476-4.127-4.127,2.551-4.128,4.127-4.128S107.013,101.159,107.013,102.81Z"/>
</svg>
